<svg width="135" height="40" viewBox="0 0 135 40" fill="none" xmlns="http://www.w3.org/2000/svg">
<g clip-path="url(#clip0)">
<path d="M130.275 40H4.7316C2.12344 40 0 37.8823 0 35.2778V4.72876C0 2.12204 2.12344 0.00146484 4.7316 0.00146484H130.275C132.79 0.00146484 134.859 1.9777 134.999 4.45947V35.5478C134.859 38.0274 132.791 40 130.275 40Z" fill="black"/>
<path d="M30.146 19.7899C30.1173 16.5656 32.7865 14.998 32.9093 14.9248C31.3969 12.7209 29.0538 12.42 28.2301 12.3963C26.2618 12.1895 24.3523 13.5733 23.3506 13.5733C22.328 13.5733 20.784 12.4164 19.1202 12.4502C16.9788 12.4839 14.976 13.7227 13.8773 15.6472C11.6095 19.5709 13.3007 25.3373 15.4729 28.5092C16.5594 30.0632 17.829 31.7974 19.4915 31.7357C21.1172 31.6689 21.7248 30.7001 23.6866 30.7001C25.6313 30.7001 26.2014 31.7357 27.8962 31.6962C29.6412 31.6689 30.7399 30.1364 31.789 28.5688C33.0443 26.7893 33.5484 25.035 33.5685 24.9452C33.5283 24.9316 30.1812 23.6541 30.1467 19.7907L30.146 19.7899Z" fill="#FEFEFE"/>
<path d="M26.9442 10.3098C27.8181 9.21614 28.4163 7.72894 28.2504 6.21948C26.9851 6.27621 25.4024 7.09485 24.4904 8.16412C23.684 9.10627 22.9637 10.6502 23.1497 12.1029C24.5716 12.2092 26.0315 11.3855 26.9442 10.3091V10.3098Z" fill="#FEFEFE"/>
<path d="M49.8044 25.9622L48.6784 22.4873C48.5592 22.1318 48.3352 21.296 48.007 19.979H47.9668C47.8347 20.5455 47.6235 21.3814 47.3341 22.4873L46.2275 25.9622H49.8037H49.8044ZM53.6973 31.5125H51.4245L50.18 27.6024H45.8541L44.6678 31.5125H42.4553L46.7424 18.2009H49.3901L53.6973 31.5125Z" fill="#FEFEFE"/>
<path d="M62.5282 26.6732C62.5282 25.7396 62.3178 24.9684 61.8956 24.3623C61.4338 23.7311 60.8148 23.4144 60.0386 23.4144C59.5122 23.4144 59.0339 23.591 58.6066 23.9379C58.1787 24.2876 57.8986 24.7443 57.7672 25.3116C57.7011 25.5759 57.6681 25.7913 57.6681 25.9615V27.5622C57.6681 28.2595 57.8821 28.8483 58.3101 29.3302C58.7388 29.8106 59.2946 30.0511 59.979 30.0511C60.7825 30.0511 61.408 29.7409 61.8554 29.1233C62.3035 28.5043 62.5282 27.6878 62.5282 26.6739V26.6732ZM64.7012 26.5949C64.7012 28.2271 64.2582 29.5176 63.3699 30.4648C62.5756 31.3078 61.5875 31.7286 60.4105 31.7286C59.1388 31.7286 58.2239 31.2755 57.6688 30.3671V35.4032H55.536V25.0689C55.536 24.0427 55.5095 22.9921 55.457 21.9135H57.3334L57.4527 23.4352H57.4929C58.2038 22.2884 59.2838 21.7161 60.7322 21.7161C61.8654 21.7161 62.8105 22.1634 63.5673 23.0582C64.3228 23.9551 64.7027 25.1328 64.7027 26.5942L64.7012 26.5949Z" fill="#FEFEFE"/>
<path d="M73.5707 26.6732C73.5707 25.7396 73.3596 24.9684 72.938 24.3623C72.4763 23.7311 71.8594 23.4144 71.0825 23.4144C70.5561 23.4144 70.0778 23.591 69.6491 23.9379C69.2211 24.2876 68.9418 24.7443 68.8111 25.3116C68.7457 25.5759 68.7113 25.7913 68.7113 25.9615V27.5622C68.7113 28.2595 68.926 28.8483 69.3525 29.3302C69.7805 29.8098 70.3371 30.0511 71.0236 30.0511C71.8271 30.0511 72.4526 29.7409 72.8993 29.1233C73.3466 28.5043 73.5714 27.6878 73.5714 26.6739L73.5707 26.6732ZM75.7451 26.5949C75.7451 28.2271 75.3013 29.5176 74.4138 30.4648C73.6188 31.3078 72.6314 31.7286 71.453 31.7286C70.1819 31.7286 69.2671 31.2755 68.7113 30.3671V35.4032H66.5785V25.0689C66.5785 24.0427 66.5512 22.9921 66.4988 21.9135H68.3752L68.4944 23.4352H68.5339C69.2448 22.2884 70.3241 21.7161 71.7747 21.7161C72.9064 21.7161 73.8522 22.1634 74.6105 23.0582C75.3645 23.9551 75.7451 25.1328 75.7451 26.5942V26.5949Z" fill="#FEFEFE"/>
<path d="M88.0922 27.7793C88.0922 28.9124 87.6965 29.8338 86.9088 30.5447C86.0427 31.321 84.8327 31.7095 83.2816 31.7095C81.849 31.7095 80.7 31.433 79.8333 30.8801L80.3266 29.1027C81.2616 29.6564 82.2899 29.9329 83.4087 29.9329C84.213 29.9329 84.8385 29.7512 85.2844 29.39C85.7318 29.0281 85.958 28.5441 85.958 27.9394C85.958 27.398 85.7713 26.9448 85.4036 26.5757C85.0345 26.2073 84.4234 25.8648 83.5667 25.5488C81.235 24.6799 80.0688 23.4089 80.0688 21.7364C80.0688 20.6442 80.481 19.7501 81.3039 19.0514C82.1269 18.3534 83.217 18.0044 84.5735 18.0044C85.7849 18.0044 86.7946 18.2155 87.5967 18.6363L87.061 20.3749C86.3063 19.9663 85.4546 19.7623 84.5024 19.7623C83.7505 19.7623 83.1602 19.9476 82.7387 20.316C82.3825 20.6449 82.203 21.0463 82.203 21.5217C82.203 22.0473 82.4084 22.4832 82.817 22.825C83.1717 23.1403 83.818 23.4836 84.7516 23.8519C85.8991 24.3137 86.7407 24.8523 87.2807 25.4706C87.8222 26.0888 88.0929 26.8594 88.0929 27.78L88.0922 27.7793Z" fill="#FEFEFE"/>
<path d="M95.1644 23.5142H92.8133V28.1747C92.8133 29.3596 93.2284 29.9513 94.0578 29.9513C94.4391 29.9513 94.7558 29.919 95.0057 29.8529L95.0646 31.4722C94.6445 31.6295 94.0916 31.7085 93.4051 31.7085C92.5627 31.7085 91.9042 31.4514 91.4296 30.938C90.9563 30.4238 90.7186 29.5621 90.7186 28.3506V23.5127H89.3169V21.9128H90.7186V20.1549L92.8133 19.5222V21.9121H95.1644V23.5142Z" fill="#FEFEFE"/>
<path d="M103.54 26.6835C103.54 25.8045 103.35 25.0498 102.968 24.4193C102.521 23.6574 101.881 23.2761 101.051 23.2761C100.196 23.2761 99.5416 23.6574 99.0949 24.4193C98.7122 25.0498 98.5226 25.8182 98.5226 26.7237C98.5226 27.6034 98.7129 28.3596 99.0949 28.9886C99.5559 29.7505 100.2 30.1318 101.032 30.1318C101.848 30.1318 102.488 29.7426 102.95 28.9692C103.343 28.3244 103.54 27.5646 103.54 26.6835ZM105.752 26.6347C105.752 28.1097 105.33 29.3211 104.488 30.2683C103.607 31.2435 102.434 31.7296 100.972 31.7296C99.5617 31.7296 98.4393 31.2629 97.6034 30.3293C96.7661 29.3944 96.3481 28.2152 96.3481 26.7941C96.3481 25.3062 96.7804 24.0883 97.6415 23.1411C98.5053 22.1925 99.6687 21.7185 101.13 21.7185C102.539 21.7185 103.671 22.1867 104.527 23.1217C105.345 24.0294 105.752 25.1992 105.752 26.6354L105.752 26.6347Z" fill="#FEFEFE"/>
<path d="M112.689 23.7897C112.477 23.7509 112.252 23.7316 112.016 23.7316C111.266 23.7316 110.685 24.0138 110.277 24.5811C109.922 25.0809 109.745 25.7135 109.745 26.4762V31.5122H107.612V24.9365C107.612 23.8307 107.591 22.8224 107.55 21.9155H109.409L109.487 23.7517H109.545C109.771 23.1205 110.126 22.6113 110.613 22.2307C111.088 21.8875 111.601 21.7166 112.154 21.7166C112.352 21.7166 112.53 21.7302 112.688 21.7553V23.789H112.689V23.7897Z" fill="#FEFEFE"/>
<path d="M120.195 25.7068C120.21 25.0741 120.07 24.5291 119.781 24.0681C119.411 23.4742 118.844 23.1783 118.082 23.1783C117.384 23.1783 116.817 23.4677 116.384 24.0479C116.028 24.509 115.816 25.0626 115.752 25.7068H120.195V25.7075V25.7068ZM122.23 26.2597C122.23 26.6417 122.205 26.9642 122.152 27.227H115.752C115.777 28.1756 116.086 28.9009 116.68 29.4014C117.22 29.8481 117.918 30.0714 118.774 30.0714C119.721 30.0714 120.585 29.9206 121.363 29.6183L121.697 31.0983C120.789 31.494 119.716 31.6908 118.478 31.6908C116.99 31.6908 115.821 31.2534 114.971 30.3781C114.123 29.5027 113.697 28.3271 113.697 26.8529C113.697 25.4066 114.092 24.2009 114.884 23.2401C115.712 22.2139 116.832 21.7012 118.241 21.7012C119.624 21.7012 120.672 22.2139 121.383 23.2401C121.948 24.0544 122.231 25.0626 122.231 26.2604L122.23 26.2597Z" fill="#FEFEFE"/>
<path d="M43.4512 7.29273C43.8972 7.01123 44.5284 6.77856 45.3449 6.77856C46.6468 6.77856 47.4619 7.4385 47.4619 8.41944C47.4619 9.23449 46.8996 9.81687 46.1319 9.99137V10.0115C46.9951 10.1192 47.6859 10.7009 47.6945 11.6042C47.6945 13.0218 46.3545 13.546 45.1503 13.546C44.509 13.546 43.8304 13.4103 43.2954 13.0986L43.5669 12.1766C43.8972 12.3518 44.5284 12.5744 45.1007 12.5744C45.9459 12.5744 46.4414 12.1672 46.4414 11.536C46.4414 10.7016 45.5955 10.4976 44.8788 10.4976H44.3632V9.60432H44.8788C45.6357 9.60432 46.2181 9.19715 46.2181 8.60399C46.2181 8.06972 45.8117 7.75016 45.1402 7.75016C44.6447 7.75016 44.1018 7.95411 43.7428 8.14799L43.452 7.29345L43.4512 7.29273Z" fill="#FEFEFE"/>
<path d="M51.7411 11.1277C50.8959 11.1184 50.0902 11.2929 50.0902 12.011C50.0902 12.477 50.3911 12.691 50.7709 12.691C51.2564 12.691 51.596 12.3801 51.7124 12.0411C51.7411 11.9542 51.7411 11.8659 51.7411 11.779V11.1277ZM52.9059 12.3018C52.9059 12.7291 52.926 13.1463 52.9841 13.4371H51.9063L51.8187 12.9129H51.7892C51.5084 13.2813 51.0129 13.5441 50.3918 13.5441C49.4417 13.5441 48.9067 12.8548 48.9067 12.1366C48.9067 10.9525 49.9659 10.3414 51.7138 10.3507V10.2739C51.7138 9.96294 51.5881 9.44877 50.7523 9.44877C50.2855 9.44877 49.8001 9.59527 49.4805 9.79921L49.2478 9.02293C49.5983 8.80966 50.2094 8.60571 50.9562 8.60571C52.4714 8.60571 52.908 9.56726 52.908 10.6049V12.3018H52.9059Z" fill="#FEFEFE"/>
<path d="M57.8263 8.70996V9.6514H55.8932V13.438H54.6997V8.70996H57.8263Z" fill="#FEFEFE"/>
<path d="M60.3482 11.458C60.3482 11.5736 60.3576 11.6806 60.377 11.7876C60.5034 12.2723 60.9206 12.622 61.4355 12.622C62.1931 12.622 62.639 11.9915 62.639 11.0601C62.639 10.225 62.2318 9.54566 61.4649 9.54566C60.9694 9.54566 60.5127 9.90471 60.387 10.4282C60.3669 10.5252 60.3482 10.6322 60.3482 10.7298V11.458ZM59.1547 10.2824C59.1547 9.66199 59.1346 9.15644 59.116 8.70978H60.1644L60.2233 9.43794H60.2434C60.5938 8.90367 61.1461 8.60278 61.8649 8.60278C62.9528 8.60278 63.8555 9.5356 63.8555 11.0106C63.8555 12.719 62.7783 13.5441 61.7011 13.5441C61.1073 13.5441 60.6125 13.292 60.3698 12.9129H60.3497V15.358H59.1562V10.2817H59.1555L59.1547 10.2824Z" fill="#FEFEFE"/>
<path d="M66.1333 8.70995L66.9792 11.2441C67.0762 11.535 67.1824 11.894 67.2499 12.1554H67.2787C67.3462 11.894 67.4338 11.535 67.5314 11.2334L68.2689 8.70923H69.5414L68.3565 11.9328C67.7059 13.6994 67.2686 14.485 66.7135 14.9711C66.2381 15.379 65.752 15.5348 65.4611 15.5729L65.1897 14.5726C65.3944 14.5252 65.6364 14.4175 65.8791 14.243C66.1117 14.0965 66.3731 13.8157 66.539 13.4947C66.5878 13.4071 66.6065 13.3396 66.6065 13.2807C66.6065 13.2333 66.5965 13.1651 66.5476 13.048L64.8098 8.70923H66.1326L66.1333 8.70995Z" fill="#FEFEFE"/>
<path d="M71.2087 10.623H71.7702C72.4309 10.623 72.8101 10.3601 72.8101 10.0205C72.8101 9.6801 72.4905 9.45749 71.9562 9.45749C71.5577 9.45749 71.1218 9.59321 70.7915 9.7871L70.5272 9.07904C71.0529 8.7681 71.6934 8.62305 72.2966 8.62305C73.1016 8.62305 74.0725 8.93399 74.0725 9.87543C74.0725 10.4779 73.5196 10.8276 73.0327 10.9339V10.9626C73.6639 11.0208 74.2858 11.3992 74.2858 12.098C74.2858 13.1952 73.0521 13.5356 72.0812 13.5356C71.4701 13.5356 70.8381 13.3891 70.3735 13.1184L70.645 12.3507C70.9753 12.536 71.4794 12.6703 71.9562 12.6804C72.6162 12.6804 72.9767 12.3989 72.9767 12.0391C72.9767 11.5343 72.4603 11.3791 71.7904 11.3791H71.208V10.6223H71.2087V10.623Z" fill="#FEFEFE"/>
<path d="M76.9263 8.70996V10.409C76.9263 11.1558 76.8969 11.6614 76.8581 12.3213H76.8969C77.1489 11.7684 77.2839 11.4194 77.5388 10.9239L78.6928 8.7114H80.1391V13.4387H79.0038V11.7504C79.0038 10.9935 79.0332 10.6445 79.0821 9.75122H79.0433C78.8099 10.3135 78.6541 10.6532 78.4214 11.1092C78.0616 11.8086 77.6236 12.6631 77.2171 13.4394H75.7888V8.71068H76.9263V8.70996Z" fill="#FEFEFE"/>
<path d="M85.4575 8.70996V9.63273H84.0407V13.438H82.8472V9.63273H81.4282V8.70996H85.4575Z" fill="#FEFEFE"/>
<path d="M89.6713 10.5733C89.6814 10.136 89.4854 9.41788 88.6918 9.41788C87.9529 9.41788 87.6413 10.0872 87.5924 10.5733H89.6713ZM87.5924 11.4092C87.6204 12.263 88.2818 12.6321 89.0502 12.6321C89.6031 12.6321 89.9916 12.5452 90.3622 12.4196L90.5367 13.2353C90.1288 13.4091 89.5658 13.5362 88.8857 13.5362C87.3519 13.5362 86.4485 12.5948 86.4485 11.1485C86.4485 9.83725 87.2463 8.60498 88.7601 8.60498C90.2947 8.60498 90.7988 9.86669 90.7988 10.9051C90.7988 11.1284 90.7794 11.3036 90.76 11.4099H87.5924V11.4092Z" fill="#FEFEFE"/>
<path d="M96.0157 10.6231H96.5104C97.1122 10.6231 97.6185 10.4579 97.6185 10.0012C97.6185 9.62347 97.2889 9.41953 96.5887 9.41953C96.346 9.41953 96.1902 9.43963 96.0164 9.4583V10.6231H96.0157ZM96.0071 12.7192C96.1995 12.7393 96.3467 12.7393 96.5787 12.7393C97.1223 12.7393 97.7829 12.6036 97.7829 12.0406C97.7829 11.5171 97.2602 11.3412 96.5119 11.3412H96.0078V12.7199L96.0071 12.7192ZM94.8423 8.7682C95.1934 8.71004 95.918 8.65259 96.5715 8.65259C97.3686 8.65259 98.7955 8.75815 98.7955 9.84536C98.7955 10.4479 98.3301 10.7875 97.8239 10.8945V10.9132C98.5334 11.0202 99.0087 11.408 99.0087 12.0686C99.0087 13.3598 97.3004 13.4948 96.3582 13.4948C95.7564 13.4948 95.1252 13.446 94.8444 13.4366V8.7682H94.843H94.8423Z" fill="#FEFEFE"/>
</g>
<defs>
<clipPath id="clip0">
<rect width="135" height="40" fill="white"/>
</clipPath>
</defs>
</svg>
