<svg width="135" height="40" viewBox="0 0 135 40" fill="none" xmlns="http://www.w3.org/2000/svg">
<path d="M129.037 0H4.96273C2.23319 0 0 2.24985 0 4.99975V34.9997C0 37.7498 2.23319 40 4.96273 40H129.037C131.766 40 134 37.7498 134 34.9997V4.99975C134 2.24985 131.766 0 129.037 0V0Z" fill="black"/>
<path d="M106.937 30H108.802V17.4989H106.937V30ZM123.743 22.002L121.604 27.4218H121.54L119.32 22.002H117.311L120.64 29.5771L118.741 33.791H120.687L125.818 22.002H123.743ZM113.16 28.58C112.55 28.58 111.697 28.2739 111.697 27.519C111.697 26.5538 112.759 26.1839 113.676 26.1839C114.495 26.1839 114.882 26.3608 115.38 26.602C115.235 27.7599 114.238 28.58 113.16 28.58ZM113.386 21.729C112.035 21.729 110.636 22.3239 110.057 23.6429L111.713 24.334C112.067 23.6429 112.727 23.417 113.418 23.417C114.383 23.417 115.364 23.9958 115.38 25.0248V25.1537C115.042 24.9607 114.318 24.6719 113.434 24.6719C111.648 24.6719 109.831 25.653 109.831 27.4859C109.831 29.1589 111.295 30.2369 112.936 30.2369C114.189 30.2369 114.882 29.674 115.315 29.014H115.38V29.9789H117.182V25.187C117.182 22.9669 115.524 21.729 113.386 21.729ZM101.854 23.5239H99.1995V19.239H101.854C103.249 19.239 104.041 20.3939 104.041 21.3809C104.041 22.3497 103.249 23.5239 101.854 23.5239ZM101.806 17.4988H97.3346V29.9999H99.1995V25.2637H101.806C103.874 25.2637 105.907 23.7667 105.907 21.3808C105.907 18.9958 103.874 17.4988 101.806 17.4988ZM77.4245 28.5828C76.1356 28.5828 75.0565 27.5028 75.0565 26.0208C75.0565 24.5219 76.1356 23.4269 77.4245 23.4269C78.6965 23.4269 79.6957 24.5219 79.6957 26.0208C79.6957 27.5028 78.6965 28.5828 77.4245 28.5828ZM79.5664 22.7018H79.5027C79.0837 22.2029 78.2775 21.7507 77.2636 21.7507C75.1364 21.7507 73.1876 23.6208 73.1876 26.0208C73.1876 28.4048 75.1365 30.2578 77.2636 30.2578C78.2775 30.2578 79.0837 29.8068 79.5027 29.2918H79.5664V29.9029C79.5664 31.5307 78.6965 32.3999 77.2956 32.3999C76.1515 32.3999 75.4425 31.5787 75.1526 30.886L73.5255 31.5629C73.9926 32.69 75.2325 34.0758 77.2956 34.0758C79.4865 34.0758 81.3395 32.7869 81.3395 29.6458V22.0087H79.5664V22.7018ZM82.6287 29.9999H84.4965V17.4988H82.6287V29.9999ZM87.2514 25.8758C87.2035 24.232 88.5245 23.3949 89.4755 23.3949C90.2165 23.3949 90.8447 23.7659 91.0547 24.2969L87.2514 25.8759V25.8758ZM93.0517 24.4579C92.6965 23.5081 91.6176 21.7508 89.4105 21.7508C87.2196 21.7508 85.3984 23.476 85.3984 26.0047C85.3984 28.389 87.2035 30.2578 89.6195 30.2578C91.5686 30.2578 92.6965 29.0659 93.1645 28.3729L91.7146 27.406C91.2305 28.115 90.5705 28.583 89.6195 28.583C88.6696 28.583 87.9927 28.147 87.5584 27.293L93.2444 24.9411L93.0516 24.458L93.0517 24.4579ZM47.7435 23.0571V24.8611H52.0615C51.9326 25.8759 51.5935 26.6169 51.0784 27.1319C50.4495 27.7609 49.4664 28.454 47.7434 28.454C45.0845 28.454 43.0065 26.311 43.0065 23.6529C43.0065 20.9949 45.0846 18.8519 47.7434 18.8519C49.1775 18.8519 50.2243 19.416 50.9973 20.1411L52.2704 18.8681C51.1904 17.8372 49.7575 17.0471 47.7434 17.0471C44.1023 17.0471 41.0415 20.0122 41.0415 23.653C41.0415 27.293 44.1024 30.2581 47.7434 30.2581C49.7084 30.2581 51.1904 29.6132 52.3504 28.405C53.5426 27.2131 53.9134 25.538 53.9134 24.1839C53.9134 23.7661 53.8814 23.3791 53.8165 23.0572H47.7435V23.0571ZM58.8216 28.5829C57.5336 28.5829 56.4216 27.519 56.4216 26.0048C56.4216 24.4738 57.5336 23.427 58.8216 23.427C60.1106 23.427 61.2226 24.4738 61.2226 26.0048C61.2226 27.5191 60.1106 28.5829 58.8216 28.5829ZM58.8216 21.7508C56.4694 21.7508 54.5527 23.54 54.5527 26.0047C54.5527 28.4538 56.4695 30.2578 58.8216 30.2578C61.1746 30.2578 63.0915 28.4538 63.0915 26.0047C63.0915 23.54 61.1746 21.7508 58.8216 21.7508ZM68.1354 28.5829C66.8465 28.5829 65.7345 27.519 65.7345 26.0048C65.7345 24.4738 66.8465 23.427 68.1354 23.427C69.4247 23.427 70.5355 24.4738 70.5355 26.0048C70.5355 27.5191 69.4246 28.5829 68.1354 28.5829ZM68.1354 21.7508C65.7835 21.7508 63.8665 23.54 63.8665 26.0047C63.8665 28.4538 65.7835 30.2578 68.1354 30.2578C70.4877 30.2578 72.4047 28.4538 72.4047 26.0047C72.4047 23.54 70.4877 21.7508 68.1354 21.7508Z" fill="white"/>
<path fill-rule="evenodd" clip-rule="evenodd" d="M22.8991 20.1469V19.8549L10.5092 7.4646L10.4352 7.53768C10.1452 7.84581 9.97314 8.3237 9.97314 8.94281V31.0587C9.97314 31.6787 10.1452 32.1566 10.4352 32.4635L10.5092 32.5355L22.8991 20.1466V20.1469Z" fill="#00D9FF"/>
<path fill-rule="evenodd" clip-rule="evenodd" d="M22.8987 19.855V20.0009V20.1468L27.0279 24.2777L27.1218 24.2258L32.015 21.4456C33.4119 20.6509 33.4119 19.3508 32.015 18.5577L27.1218 15.7766L27.0288 15.7236L22.8987 19.8549V19.855Z" fill="#FFCD00"/>
<path fill-rule="evenodd" clip-rule="evenodd" d="M10.4349 32.4638C10.8958 32.9508 11.6569 33.012 12.5138 32.5259L27.1219 24.2249L22.8988 20.001L10.4348 32.4638H10.4349Z" fill="#FA3746"/>
<path fill-rule="evenodd" clip-rule="evenodd" d="M11.4089 7.13989H11.393H11.3751C10.9986 7.14417 10.6758 7.28276 10.4348 7.53789L22.8988 20.001L27.1219 15.7768L12.5138 7.47699C12.1181 7.2516 11.7428 7.1434 11.4089 7.14V7.13989Z" fill="#00F076"/>
<path d="M43.9349 12.1764C44.5603 11.1622 44.7125 9.67452 44.7125 8.49961V8.05146H46.3187V12.1764H43.9351H43.9349ZM42.2021 12.1764V14.2981H43.2079V13.1146H47.1047V14.2981H48.0767V12.1764H47.4089V7.11347H43.6813V8.42335C43.6813 9.6405 43.5546 11.0522 42.8108 12.1764H42.2023H42.2021ZM48.6683 10.0718C48.6683 11.8383 50.0037 13.2163 51.7705 13.2163C53.5371 13.2163 54.8725 11.8383 54.8725 10.0718C54.8725 8.35597 53.537 7.01207 51.7705 7.01207C50.0037 7.01207 48.6683 8.35597 48.6683 10.0718ZM49.7925 10.0718C49.7925 8.90529 50.6716 8.00921 51.7705 8.00921C52.8693 8.00921 53.7482 8.90529 53.7482 10.0718C53.7482 11.2889 52.8692 12.2187 51.7705 12.2187C50.6716 12.2187 49.7925 11.2889 49.7925 10.0718ZM55.6248 10.0888C55.6248 11.8553 56.8419 13.2163 58.7267 13.2163C59.8002 13.2163 60.5696 12.7681 61.0851 12.2442L60.5102 11.4579C60.0538 11.906 59.4114 12.2187 58.7692 12.2187C57.4672 12.2187 56.7489 11.196 56.7489 10.0718C56.7489 8.96455 57.442 8.00921 58.7606 8.00921C59.3437 8.00921 59.9778 8.27992 60.4005 8.64336L60.9243 7.83178C60.3412 7.26545 59.4959 7.01196 58.7099 7.01196C56.9011 7.01196 55.6247 8.34741 55.6247 10.0886L55.6248 10.0888ZM63.3841 13.1147H64.4661V8.05146H66.4356V7.11347H61.4145V8.05146H63.384V13.1147H63.3841ZM67.1286 12.8021C67.4921 13.0555 67.8724 13.2163 68.3288 13.2163C69.1996 13.2163 69.6138 12.4977 69.8671 11.8553L71.7184 7.11358H70.5772L69.6138 9.80137C69.4786 10.1903 69.3686 10.5874 69.3686 10.5874H69.3516C69.3516 10.5874 69.2079 10.1903 69.0137 9.79281L67.7373 7.11347H66.5372L68.8868 11.7537C68.76 12.0834 68.5912 12.2778 68.2866 12.2778C68.0077 12.2778 67.7626 12.1004 67.6106 11.9819L67.1287 12.8019L67.1286 12.8021ZM72.462 13.1147H73.5525V8.05146H76.2321V13.1147H77.3223V7.11347H72.462V13.1147ZM78.7761 13.1147H79.8666V10.5958H82.6137V13.1147H83.6957V7.11347H82.6137V9.65751H79.8666V7.11347H78.7761V13.1147ZM84.7946 10.0718C84.7946 11.8383 86.1301 13.2163 87.8969 13.2163C89.6635 13.2163 90.9988 11.8383 90.9988 10.0718C90.9988 8.35597 89.6634 7.01207 87.8969 7.01207C86.1301 7.01207 84.7946 8.35597 84.7946 10.0718ZM85.9189 10.0718C85.9189 8.90529 86.7979 8.00921 87.8969 8.00921C88.9957 8.00921 89.8746 8.90529 89.8746 10.0718C89.8746 11.2889 88.9955 12.2187 87.8969 12.2187C86.7979 12.2187 85.9189 11.2889 85.9189 10.0718Z" fill="white"/>
</svg>
